<mxfile host="Electron" agent="Mozilla/5.0 (Windows NT 10.0; Win64; x64) AppleWebKit/537.36 (KHTML, like Gecko) draw.io/24.7.17 Chrome/128.0.6613.36 Electron/32.0.1 Safari/537.36" version="24.7.17" pages="2">
  <diagram name="Página-1" id="GgXQBKr8t791sdZcNhxC">
    <mxGraphModel dx="1275" dy="1324" grid="0" gridSize="10" guides="1" tooltips="1" connect="1" arrows="1" fold="1" page="0" pageScale="1" pageWidth="827" pageHeight="1169" math="0" shadow="0">
      <root>
        <mxCell id="0" />
        <mxCell id="1" parent="0" />
        <mxCell id="j5QrskLH5BS8TeyAzQOU-3" value="" style="rounded=1;whiteSpace=wrap;html=1;fillStyle=solid;fillColor=#000033;" vertex="1" parent="1">
          <mxGeometry x="30" y="-406" width="527" height="133" as="geometry" />
        </mxCell>
        <mxCell id="j5QrskLH5BS8TeyAzQOU-5" value="" style="shape=flexArrow;endArrow=classic;html=1;rounded=0;width=22.758620689655174;endSize=6.344827586206896;fillColor=#CC0000;fillStyle=solid;" edge="1" parent="1">
          <mxGeometry width="50" height="50" relative="1" as="geometry">
            <mxPoint x="-36" y="-339.84000000000003" as="sourcePoint" />
            <mxPoint x="24" y="-339.5" as="targetPoint" />
          </mxGeometry>
        </mxCell>
        <mxCell id="j5QrskLH5BS8TeyAzQOU-8" value="Cadastrar Ficha" style="ellipse;whiteSpace=wrap;html=1;fillColor=#0066CC;fontColor=#FFFFFF;fontStyle=1" vertex="1" parent="1">
          <mxGeometry x="223" y="-379.5" width="141" height="80" as="geometry" />
        </mxCell>
        <mxCell id="j5QrskLH5BS8TeyAzQOU-17" value="Camada de Serviço-Tarefa" style="rounded=1;whiteSpace=wrap;html=1;fontSize=18;fontStyle=1;fontColor=#CC0000;" vertex="1" parent="1">
          <mxGeometry x="-207" y="-398.5" width="162" height="118" as="geometry" />
        </mxCell>
        <mxCell id="j5QrskLH5BS8TeyAzQOU-22" value="" style="rounded=1;whiteSpace=wrap;html=1;fillStyle=solid;fillColor=#000033;" vertex="1" parent="1">
          <mxGeometry x="30" y="-255" width="527" height="133" as="geometry" />
        </mxCell>
        <mxCell id="j5QrskLH5BS8TeyAzQOU-23" value="" style="shape=flexArrow;endArrow=classic;html=1;rounded=0;width=22.758620689655174;endSize=6.344827586206896;fillColor=#CC0000;fillStyle=solid;" edge="1" parent="1">
          <mxGeometry width="50" height="50" relative="1" as="geometry">
            <mxPoint x="-36" y="-188.84000000000003" as="sourcePoint" />
            <mxPoint x="24" y="-188.5" as="targetPoint" />
          </mxGeometry>
        </mxCell>
        <mxCell id="j5QrskLH5BS8TeyAzQOU-24" value="Gestor" style="ellipse;whiteSpace=wrap;html=1;fillColor=#0066CC;fontColor=#FFFFFF;fontStyle=1" vertex="1" parent="1">
          <mxGeometry x="51" y="-228.5" width="141" height="80" as="geometry" />
        </mxCell>
        <mxCell id="j5QrskLH5BS8TeyAzQOU-25" value="Camada de Serviço Entidade" style="rounded=1;whiteSpace=wrap;html=1;fontSize=18;fontStyle=1;fontColor=#CC0000;" vertex="1" parent="1">
          <mxGeometry x="-207" y="-247.5" width="162" height="118" as="geometry" />
        </mxCell>
        <mxCell id="j5QrskLH5BS8TeyAzQOU-34" style="shape=connector;rounded=0;orthogonalLoop=1;jettySize=auto;html=1;exitX=0.5;exitY=1;exitDx=0;exitDy=0;entryX=0.5;entryY=0;entryDx=0;entryDy=0;strokeColor=#FF0000;strokeWidth=2;align=center;verticalAlign=middle;fontFamily=Helvetica;fontSize=11;fontColor=default;labelBackgroundColor=default;endArrow=none;endFill=0;" edge="1" parent="1" source="j5QrskLH5BS8TeyAzQOU-8" target="j5QrskLH5BS8TeyAzQOU-24">
          <mxGeometry relative="1" as="geometry" />
        </mxCell>
        <mxCell id="j5QrskLH5BS8TeyAzQOU-26" value="" style="rounded=1;whiteSpace=wrap;html=1;fillStyle=solid;fillColor=#000033;" vertex="1" parent="1">
          <mxGeometry x="30" y="-105" width="527" height="133" as="geometry" />
        </mxCell>
        <mxCell id="j5QrskLH5BS8TeyAzQOU-27" value="" style="shape=flexArrow;endArrow=classic;html=1;rounded=0;width=22.758620689655174;endSize=6.344827586206896;fillColor=#CC0000;fillStyle=solid;" edge="1" parent="1">
          <mxGeometry width="50" height="50" relative="1" as="geometry">
            <mxPoint x="-36" y="-38.84000000000003" as="sourcePoint" />
            <mxPoint x="24" y="-38.5" as="targetPoint" />
          </mxGeometry>
        </mxCell>
        <mxCell id="j5QrskLH5BS8TeyAzQOU-40" style="edgeStyle=none;shape=connector;rounded=0;orthogonalLoop=1;jettySize=auto;html=1;exitX=0.5;exitY=0;exitDx=0;exitDy=0;entryX=0.5;entryY=1;entryDx=0;entryDy=0;strokeColor=#FF0000;strokeWidth=2;align=center;verticalAlign=middle;fontFamily=Helvetica;fontSize=11;fontColor=default;labelBackgroundColor=default;endArrow=none;endFill=0;" edge="1" parent="1" source="j5QrskLH5BS8TeyAzQOU-28" target="j5QrskLH5BS8TeyAzQOU-31">
          <mxGeometry relative="1" as="geometry" />
        </mxCell>
        <mxCell id="j5QrskLH5BS8TeyAzQOU-28" value="Validar Informações" style="ellipse;whiteSpace=wrap;html=1;fillColor=#0066CC;fontColor=#FFFFFF;fontStyle=1" vertex="1" parent="1">
          <mxGeometry x="133" y="-78.5" width="141" height="80" as="geometry" />
        </mxCell>
        <mxCell id="j5QrskLH5BS8TeyAzQOU-29" value="Camada de Serviço Utilitário" style="rounded=1;whiteSpace=wrap;html=1;fontSize=18;fontStyle=1;fontColor=#CC0000;" vertex="1" parent="1">
          <mxGeometry x="-207" y="-97.5" width="162" height="118" as="geometry" />
        </mxCell>
        <mxCell id="j5QrskLH5BS8TeyAzQOU-33" style="edgeStyle=orthogonalEdgeStyle;rounded=0;orthogonalLoop=1;jettySize=auto;html=1;exitX=0.5;exitY=1;exitDx=0;exitDy=0;entryX=0.5;entryY=0;entryDx=0;entryDy=0;strokeWidth=2;strokeColor=#FF0000;endArrow=none;endFill=0;" edge="1" parent="1" source="j5QrskLH5BS8TeyAzQOU-8" target="j5QrskLH5BS8TeyAzQOU-30">
          <mxGeometry relative="1" as="geometry" />
        </mxCell>
        <mxCell id="j5QrskLH5BS8TeyAzQOU-35" style="shape=connector;rounded=0;orthogonalLoop=1;jettySize=auto;html=1;exitX=0.5;exitY=1;exitDx=0;exitDy=0;entryX=0.5;entryY=0;entryDx=0;entryDy=0;strokeColor=#FF0000;strokeWidth=2;align=center;verticalAlign=middle;fontFamily=Helvetica;fontSize=11;fontColor=default;labelBackgroundColor=default;endArrow=none;endFill=0;" edge="1" parent="1" source="j5QrskLH5BS8TeyAzQOU-30" target="j5QrskLH5BS8TeyAzQOU-28">
          <mxGeometry relative="1" as="geometry" />
        </mxCell>
        <mxCell id="j5QrskLH5BS8TeyAzQOU-37" style="edgeStyle=none;shape=connector;rounded=0;orthogonalLoop=1;jettySize=auto;html=1;exitX=0.5;exitY=1;exitDx=0;exitDy=0;entryX=0.5;entryY=0;entryDx=0;entryDy=0;strokeColor=#FF0000;strokeWidth=2;align=center;verticalAlign=middle;fontFamily=Helvetica;fontSize=11;fontColor=default;labelBackgroundColor=default;endArrow=none;endFill=0;" edge="1" parent="1" source="j5QrskLH5BS8TeyAzQOU-30" target="j5QrskLH5BS8TeyAzQOU-32">
          <mxGeometry relative="1" as="geometry" />
        </mxCell>
        <mxCell id="j5QrskLH5BS8TeyAzQOU-30" value="FISPQ" style="ellipse;whiteSpace=wrap;html=1;fillColor=#0066CC;fontColor=#FFFFFF;fontStyle=1" vertex="1" parent="1">
          <mxGeometry x="223" y="-228.5" width="141" height="80" as="geometry" />
        </mxCell>
        <mxCell id="j5QrskLH5BS8TeyAzQOU-31" value="Funcionário" style="ellipse;whiteSpace=wrap;html=1;fillColor=#0066CC;fontColor=#FFFFFF;fontStyle=1" vertex="1" parent="1">
          <mxGeometry x="392" y="-228.5" width="141" height="80" as="geometry" />
        </mxCell>
        <mxCell id="j5QrskLH5BS8TeyAzQOU-32" value="Enviar Mensagem" style="ellipse;whiteSpace=wrap;html=1;fillColor=#0066CC;fontColor=#FFFFFF;fontStyle=1" vertex="1" parent="1">
          <mxGeometry x="314" y="-78.5" width="141" height="80" as="geometry" />
        </mxCell>
        <mxCell id="j5QrskLH5BS8TeyAzQOU-36" style="edgeStyle=none;shape=connector;rounded=1;orthogonalLoop=1;jettySize=auto;html=1;exitX=0.5;exitY=1;exitDx=0;exitDy=0;entryX=0.5;entryY=0;entryDx=0;entryDy=0;strokeColor=#FF0000;strokeWidth=2;align=center;verticalAlign=middle;fontFamily=Helvetica;fontSize=11;fontColor=default;labelBackgroundColor=default;endArrow=none;endFill=0;curved=0;" edge="1" parent="1" source="j5QrskLH5BS8TeyAzQOU-8" target="j5QrskLH5BS8TeyAzQOU-32">
          <mxGeometry relative="1" as="geometry">
            <Array as="points">
              <mxPoint x="382" y="-240" />
            </Array>
          </mxGeometry>
        </mxCell>
        <mxCell id="j5QrskLH5BS8TeyAzQOU-39" style="edgeStyle=none;shape=connector;rounded=1;orthogonalLoop=1;jettySize=auto;html=1;exitX=0.5;exitY=1;exitDx=0;exitDy=0;entryX=0.5;entryY=0;entryDx=0;entryDy=0;strokeColor=#FF0000;strokeWidth=2;align=center;verticalAlign=middle;fontFamily=Helvetica;fontSize=11;fontColor=default;labelBackgroundColor=default;endArrow=none;endFill=0;curved=0;" edge="1" parent="1" source="j5QrskLH5BS8TeyAzQOU-8" target="j5QrskLH5BS8TeyAzQOU-28">
          <mxGeometry relative="1" as="geometry">
            <Array as="points">
              <mxPoint x="204" y="-241" />
            </Array>
          </mxGeometry>
        </mxCell>
        <mxCell id="j5QrskLH5BS8TeyAzQOU-41" style="edgeStyle=none;shape=connector;rounded=0;orthogonalLoop=1;jettySize=auto;html=1;exitX=0.5;exitY=1;exitDx=0;exitDy=0;entryX=0.5;entryY=0;entryDx=0;entryDy=0;strokeColor=#FF0000;strokeWidth=2;align=center;verticalAlign=middle;fontFamily=Helvetica;fontSize=11;fontColor=default;labelBackgroundColor=default;endArrow=none;endFill=0;" edge="1" parent="1" source="j5QrskLH5BS8TeyAzQOU-24" target="j5QrskLH5BS8TeyAzQOU-28">
          <mxGeometry relative="1" as="geometry" />
        </mxCell>
      </root>
    </mxGraphModel>
  </diagram>
  <diagram id="st2IvXCXWv6MZ0JeC0wY" name="Página-2">
    <mxGraphModel grid="0" page="0" gridSize="10" guides="1" tooltips="1" connect="1" arrows="1" fold="1" pageScale="1" pageWidth="827" pageHeight="1169" math="0" shadow="0">
      <root>
        <mxCell id="0" />
        <mxCell id="1" parent="0" />
      </root>
    </mxGraphModel>
  </diagram>
</mxfile>
